<svg width="264" height="42" viewBox="0 0 264 42" fill="none" xmlns="http://www.w3.org/2000/svg">
<rect width="75" height="42" fill="#56CCFF"/>
<path d="M13.3986 31V10.7H25.1726C26.7966 10.7 28.179 10.9707 29.3196 11.512C30.4603 12.034 31.3303 12.788 31.9296 13.774C32.529 14.7407 32.8286 15.8813 32.8286 17.196C32.8286 18.4913 32.4903 19.661 31.8136 20.705C31.137 21.7297 30.2186 22.5417 29.0586 23.141C27.8986 23.721 26.6033 24.011 25.1726 24.011H18.0966V31H13.3986ZM28.3046 31L21.4026 21.836L26.5646 21.111L34.0466 31H28.3046ZM18.0966 20.241H24.5926C25.1726 20.241 25.7043 20.125 26.1876 19.893C26.6903 19.661 27.0866 19.342 27.3766 18.936C27.686 18.5107 27.8406 18.0177 27.8406 17.457C27.8406 16.8963 27.686 16.4227 27.3766 16.036C27.0866 15.6493 26.6903 15.3497 26.1876 15.137C25.685 14.9243 25.134 14.818 24.5346 14.818H18.0966V20.241ZM42.9084 31V10.7H61.1204V14.905H47.6934V26.795H61.4104V31H42.9084ZM45.5184 22.677V18.675H59.8154V22.677H45.5184Z" fill="#0C1B44"/>
<path d="M88.423 31V10.7H90.685V31H88.423ZM89.322 22.242V20.009H103.3V22.242H89.322ZM89.612 12.904V10.7H104.663V12.904H89.612ZM114.138 31V10.7H125.303C126.521 10.7 127.613 10.9707 128.58 11.512C129.566 12.0533 130.349 12.788 130.929 13.716C131.509 14.6247 131.799 15.6397 131.799 16.761C131.799 18.0177 131.49 19.1293 130.871 20.096C130.252 21.0433 129.411 21.7877 128.348 22.329C127.304 22.8703 126.125 23.141 124.81 23.141H116.4V31H114.138ZM130.175 31L123.331 22.068L125.622 21.372L132.988 31H130.175ZM116.4 20.937H124.52C125.448 20.937 126.279 20.7533 127.014 20.386C127.749 20.0187 128.329 19.5257 128.754 18.907C129.179 18.2883 129.392 17.5923 129.392 16.819C129.392 16.0843 129.179 15.427 128.754 14.847C128.329 14.2477 127.758 13.774 127.043 13.426C126.328 13.078 125.535 12.904 124.665 12.904H116.4V20.937ZM139.733 31L149.622 10.7H152.464L162.266 31H159.743L152.522 16.094C152.271 15.514 152.058 15.05 151.884 14.702C151.729 14.354 151.584 14.0543 151.449 13.803C151.314 13.5517 151.178 13.2713 151.043 12.962C150.927 12.6527 150.792 12.2563 150.637 11.773L151.304 11.744C151.091 12.3047 150.908 12.759 150.753 13.107C150.618 13.4357 150.482 13.745 150.347 14.035C150.212 14.3057 150.057 14.6053 149.883 14.934C149.728 15.2627 149.525 15.6977 149.274 16.239L142.111 31H139.733ZM143.822 25.693L144.75 23.489H157.162L157.568 25.693H143.822ZM170.41 31V10.7H172.643L182.387 22.967H181.517L191.29 10.7H193.494V31H191.232V21.546C191.213 19.8833 191.232 18.356 191.29 16.964C191.348 15.5527 191.464 14.1317 191.638 12.701L191.957 13.513L182.706 24.968H181.14L171.918 13.513L172.266 12.701C172.44 14.093 172.556 15.4947 172.614 16.906C172.672 18.298 172.701 19.8447 172.701 21.546L172.672 31H170.41ZM204.338 31V10.7H220.694V12.904H206.6V28.796H220.636V31H204.338ZM205.556 21.662V19.458H219.07V21.662H205.556ZM230.676 31V10.7H240.652C242.45 10.7 244.045 10.9707 245.437 11.512C246.848 12.034 248.037 12.759 249.004 13.687C249.99 14.5957 250.734 15.6687 251.237 16.906C251.759 18.124 252.02 19.4387 252.02 20.85C252.02 22.2613 251.759 23.5857 251.237 24.823C250.734 26.0603 249.99 27.143 249.004 28.071C248.037 28.9797 246.848 29.695 245.437 30.217C244.045 30.739 242.45 31 240.652 31H230.676ZM232.938 29.202L232.677 28.796H240.507C241.996 28.796 243.301 28.6027 244.422 28.216C245.563 27.81 246.51 27.2493 247.264 26.534C248.037 25.7993 248.617 24.9583 249.004 24.011C249.41 23.0443 249.613 21.9907 249.613 20.85C249.613 19.7287 249.41 18.6943 249.004 17.747C248.617 16.7997 248.037 15.9587 247.264 15.224C246.51 14.4893 245.563 13.919 244.422 13.513C243.301 13.107 241.996 12.904 240.507 12.904H232.59L232.938 12.556V29.202Z" fill="white"/>
</svg>
