<svg width="50" height="50" viewBox="0 0 50 50" fill="none" xmlns="http://www.w3.org/2000/svg">
<path d="M19 48.9668C8.09105 46.2792 0 36.4329 0 24.6943C0 12.9557 8.09105 3.10946 19 0.421875V48.9668ZM31 0.421875C41.909 3.10946 50 12.9557 50 24.6943C50 36.4329 41.909 46.2792 31 48.9668V0.421875Z" fill="white"/>
<path d="M37.6064 20.4129L41.5542 24.0199C42.1486 24.563 42.1486 25.4404 41.5542 25.9835L37.6064 29.5905C36.6462 30.4679 35 29.8412 35 28.6018V21.3878C35 20.1483 36.6462 19.5355 37.6064 20.4129Z" fill="black"/>
<path d="M12.3936 20.4129L8.44584 24.0199C7.85139 24.563 7.85139 25.4404 8.44584 25.9835L12.3936 29.5905C13.3538 30.4679 15 29.8412 15 28.6018V21.3878C15 20.1483 13.3538 19.5355 12.3936 20.4129Z" fill="black"/>
</svg>
